<?xml version="1.0" standalone="no"?>
<!DOCTYPE svg PUBLIC "-//W3C//DTD SVG 20010904//EN"
 "http://www.w3.org/TR/2001/REC-SVG-20010904/DTD/svg10.dtd">
<svg version="1.0" xmlns="http://www.w3.org/2000/svg"
 width="1024.000000pt" height="1024.000000pt" viewBox="0 0 1024.000000 1024.000000"
 preserveAspectRatio="xMidYMid meet">

<g transform="translate(0.000000,1024.000000) scale(0.100000,-0.100000)"
fill="#000000" stroke="none">
<path d="M4880 9233 c-621 -42 -1160 -189 -1676 -458 -1004 -522 -1756 -1436
-2074 -2520 -153 -524 -198 -1140 -124 -1704 102 -780 442 -1535 968 -2150
386 -452 828 -795 1361 -1058 726 -357 1545 -486 2365 -372 702 98 1365 384
1957 846 400 311 767 726 1026 1158 300 502 484 1042 564 1660 26 202 26 752
0 945 -71 526 -181 892 -403 1345 -619 1264 -1843 2129 -3234 2284 -222 25
-556 36 -730 24z m530 -273 c510 -39 945 -157 1425 -389 848 -410 1503 -1112
1884 -2017 129 -308 221 -659 268 -1019 22 -172 25 -658 5 -830 -51 -441 -170
-857 -361 -1269 l-42 -90 -95 143 c-244 365 -389 639 -496 936 -66 184 -87
289 -98 490 -38 695 -188 1262 -450 1700 l-48 80 5 200 c10 347 -22 714 -78
900 -81 273 -229 442 -416 476 -162 30 -360 -76 -593 -317 -99 -103 -248 -280
-294 -351 -14 -21 -26 -31 -36 -27 -37 14 -214 54 -305 68 -361 56 -728 66
-1050 30 -258 -30 -229 -30 -250 2 -44 69 -190 237 -285 328 -186 178 -335
272 -478 301 -134 28 -235 -5 -327 -107 -84 -92 -127 -220 -146 -433 -15 -157
-5 -487 20 -680 l19 -150 -49 -63 c-234 -296 -351 -610 -429 -1150 -26 -177
-43 -234 -120 -396 -71 -151 -121 -289 -146 -406 -25 -117 -25 -371 -1 -493
39 -196 125 -392 244 -560 110 -154 319 -345 501 -456 28 -18 52 -37 52 -42 0
-5 -12 -58 -26 -117 -95 -401 -167 -892 -190 -1302 -4 -66 -9 -120 -11 -120
-9 0 -282 206 -368 279 -132 110 -386 368 -507 513 -389 470 -647 977 -793
1558 -120 478 -145 969 -74 1465 188 1317 1062 2467 2274 2995 437 190 831
289 1285 323 106 8 456 6 580 -3z m-1751 -915 c109 -51 263 -181 411 -348 l98
-111 -82 -26 c-44 -15 -118 -44 -163 -66 l-82 -40 -55 81 c-84 123 -162 205
-196 205 -15 0 -33 -7 -40 -15 -19 -23 -8 -159 25 -300 l27 -119 -39 -30 c-21
-17 -64 -55 -96 -85 -31 -30 -59 -52 -61 -50 -11 12 -26 275 -26 451 1 287 30
426 98 463 43 23 119 18 181 -10z m3257 -11 c79 -37 156 -168 198 -334 48
-187 60 -334 61 -730 l1 -365 51 -75 c171 -254 331 -710 398 -1129 8 -52 22
-187 32 -300 14 -177 15 -229 5 -376 -14 -195 -40 -358 -78 -489 -14 -50 -26
-104 -26 -119 1 -42 27 -75 68 -86 36 -10 50 -8 93 12 27 13 75 108 86 170 4
20 10 37 14 37 3 0 17 -28 30 -62 37 -97 202 -420 278 -546 72 -120 214 -322
300 -431 l52 -65 -21 -36 c-60 -101 -180 -277 -251 -370 -259 -338 -598 -659
-939 -888 -544 -366 -1096 -568 -1738 -638 -196 -21 -698 -15 -888 10 -439 59
-844 183 -1222 377 -191 97 -180 87 -180 168 0 323 111 1142 200 1471 l10 39
58 -26 c322 -142 723 -215 1072 -193 262 16 413 54 454 112 33 47 9 115 -50
143 -36 17 -42 17 -108 1 -126 -29 -228 -39 -406 -39 -441 0 -852 120 -1200
350 -390 259 -593 565 -630 951 -18 190 17 359 122 592 33 74 76 170 95 213
38 86 64 197 88 387 78 607 353 1073 820 1385 251 168 558 271 910 306 276 26
760 7 1020 -41 190 -35 179 -31 186 -72 12 -76 60 -116 124 -104 39 8 30 -3
264 293 207 261 377 424 506 485 69 32 94 34 141 12z"/>
<path d="M6753 7715 c-43 -30 -361 -537 -365 -582 -3 -43 8 -56 120 -137 64
-46 169 -123 232 -170 131 -98 155 -109 180 -78 37 45 34 508 -5 749 -16 101
-44 184 -71 214 -20 23 -62 25 -91 4z"/>
<path d="M3711 6497 c-48 -28 -65 -100 -37 -155 14 -28 32 -40 171 -119 57
-33 95 -47 132 -50 48 -5 55 -3 83 25 24 24 30 39 30 72 0 57 -21 93 -83 139
-103 78 -241 119 -296 88z"/>
<path d="M5330 6370 c-121 -33 -177 -59 -214 -100 -47 -52 -49 -98 -8 -140 53
-53 116 -49 341 22 119 38 151 66 151 133 0 38 -5 52 -29 76 -27 27 -35 29
-103 28 -40 0 -102 -9 -138 -19z"/>
<path d="M3577 6060 c-122 -31 -227 -144 -227 -245 0 -109 139 -226 286 -241
49 -5 69 -2 111 16 59 25 146 110 168 165 33 77 11 157 -62 227 -69 67 -187
100 -276 78z"/>
<path d="M5370 5909 c-109 -21 -213 -105 -244 -196 -23 -66 -20 -111 10 -171
48 -96 155 -146 309 -145 236 2 435 120 435 258 0 163 -275 300 -510 254z"/>
<path d="M3213 5803 c9 -2 23 -2 30 0 6 3 -1 5 -18 5 -16 0 -22 -2 -12 -5z"/>
<path d="M3158 5793 c7 -3 16 -2 19 1 4 3 -2 6 -13 5 -11 0 -14 -3 -6 -6z"/>
<path d="M3118 5783 c7 -3 16 -2 19 1 4 3 -2 6 -13 5 -11 0 -14 -3 -6 -6z"/>
<path d="M3030 5755 c-14 -8 -20 -14 -15 -14 6 0 21 6 35 14 14 8 21 14 15 14
-5 0 -21 -6 -35 -14z"/>
<path d="M2970 5725 c-14 -8 -20 -14 -14 -15 5 0 19 7 30 15 24 18 16 19 -16
0z"/>
<path d="M3645 5468 c-90 -96 -192 -218 -181 -218 2 0 26 28 54 63 27 34 91
106 141 160 51 53 91 97 88 97 -3 0 -49 -46 -102 -102z"/>
<path d="M6128 5423 c34 -2 90 -2 125 0 34 2 6 3 -63 3 -69 0 -97 -1 -62 -3z"/>
<path d="M5928 5413 c17 -2 47 -2 65 0 17 2 3 4 -33 4 -36 0 -50 -2 -32 -4z"/>
<path d="M6358 5413 c12 -2 30 -2 40 0 9 3 -1 5 -23 4 -22 0 -30 -2 -17 -4z"/>
<path d="M5803 5403 c15 -2 37 -2 50 0 12 2 0 4 -28 4 -27 0 -38 -2 -22 -4z"/>
<path d="M6438 5403 c6 -2 18 -2 25 0 6 3 1 5 -13 5 -14 0 -19 -2 -12 -5z"/>
<path d="M5683 5393 c15 -2 39 -2 55 0 15 2 2 4 -28 4 -30 0 -43 -2 -27 -4z"/>
<path d="M6488 5393 c6 -2 18 -2 25 0 6 3 1 5 -13 5 -14 0 -19 -2 -12 -5z"/>
<path d="M5583 5383 c15 -2 37 -2 50 0 12 2 0 4 -28 4 -27 0 -38 -2 -22 -4z"/>
<path d="M5488 5373 c12 -2 30 -2 40 0 9 3 -1 5 -23 4 -22 0 -30 -2 -17 -4z"/>
<path d="M6568 5373 c7 -3 16 -2 19 1 4 3 -2 6 -13 5 -11 0 -14 -3 -6 -6z"/>
<path d="M5353 5353 c9 -2 23 -2 30 0 6 3 -1 5 -18 5 -16 0 -22 -2 -12 -5z"/>
<path d="M6640 5350 c8 -5 20 -10 25 -10 6 0 3 5 -5 10 -8 5 -19 10 -25 10 -5
0 -3 -5 5 -10z"/>
<path d="M5293 5343 c9 -2 23 -2 30 0 6 3 -1 5 -18 5 -16 0 -22 -2 -12 -5z"/>
<path d="M5233 5333 c9 -2 23 -2 30 0 6 3 -1 5 -18 5 -16 0 -22 -2 -12 -5z"/>
<path d="M5178 5323 c6 -2 18 -2 25 0 6 3 1 5 -13 5 -14 0 -19 -2 -12 -5z"/>
<path d="M6701 5326 c2 -2 15 -9 29 -15 24 -11 24 -11 6 3 -16 13 -49 24 -35
12z"/>
<path d="M5128 5313 c6 -2 18 -2 25 0 6 3 1 5 -13 5 -14 0 -19 -2 -12 -5z"/>
<path d="M5078 5303 c6 -2 18 -2 25 0 6 3 1 5 -13 5 -14 0 -19 -2 -12 -5z"/>
<path d="M5028 5293 c6 -2 18 -2 25 0 6 3 1 5 -13 5 -14 0 -19 -2 -12 -5z"/>
<path d="M6760 5297 c0 -3 12 -12 26 -22 15 -9 23 -12 20 -6 -7 11 -46 35 -46
28z"/>
<path d="M4988 5283 c7 -3 16 -2 19 1 4 3 -2 6 -13 5 -11 0 -14 -3 -6 -6z"/>
<path d="M4948 5273 c7 -3 16 -2 19 1 4 3 -2 6 -13 5 -11 0 -14 -3 -6 -6z"/>
<path d="M4885 5260 c-13 -5 -14 -9 -5 -9 8 0 24 4 35 9 13 5 14 9 5 9 -8 0
-24 -4 -35 -9z"/>
<path d="M6877 5199 c34 -35 70 -73 80 -84 28 -32 2 6 -32 46 -16 20 -48 51
-70 69 -25 21 -17 10 22 -31z"/>
<path d="M4778 5223 c7 -3 16 -2 19 1 4 3 -2 6 -13 5 -11 0 -14 -3 -6 -6z"/>
<path d="M3580 5209 c-265 -39 -368 -233 -253 -478 37 -79 149 -189 233 -228
36 -17 73 -33 82 -36 15 -5 16 -11 7 -34 -15 -40 -37 -62 -92 -90 -108 -54
-232 -51 -317 8 -55 39 -109 43 -145 9 -76 -72 -6 -182 150 -235 28 -9 86 -19
130 -22 102 -7 180 12 298 71 48 24 87 40 87 37 0 -15 168 -106 271 -148 266
-108 552 -129 784 -56 101 32 262 114 299 152 17 18 30 44 33 70 5 36 2 44
-30 76 -24 24 -44 35 -63 35 -16 0 -87 -29 -159 -65 -73 -36 -165 -74 -209
-85 -190 -48 -426 -9 -672 110 -106 52 -164 96 -164 127 0 15 13 21 68 31 132
25 296 124 381 231 60 77 84 135 85 205 2 141 -70 213 -271 271 -173 51 -377
67 -533 44z"/>
<path d="M4715 5205 c-25 -12 -26 -14 -5 -9 28 7 60 23 45 23 -5 0 -23 -6 -40
-14z"/>
<path d="M3420 5190 c-6 -11 -8 -20 -6 -20 3 0 10 9 16 20 6 11 8 20 6 20 -3
0 -10 -9 -16 -20z"/>
<path d="M4650 5180 c-8 -5 -10 -10 -5 -10 6 0 17 5 25 10 8 5 11 10 5 10 -5
0 -17 -5 -25 -10z"/>
<path d="M4600 5160 c-8 -5 -10 -10 -5 -10 6 0 17 5 25 10 8 5 11 10 5 10 -5
0 -17 -5 -25 -10z"/>
<path d="M4428 5074 c-38 -20 -36 -28 2 -9 17 9 30 18 30 20 0 7 -1 6 -32 -11z"/>
<path d="M7017 5015 c9 -19 18 -33 21 -31 4 5 -26 66 -33 66 -3 0 3 -16 12
-35z"/>
<path d="M7071 4874 c0 -11 3 -14 6 -6 3 7 2 16 -1 19 -3 4 -6 -2 -5 -13z"/>
<path d="M7082 4820 c0 -14 2 -19 5 -12 2 6 2 18 0 25 -3 6 -5 1 -5 -13z"/>
<path d="M7093 4710 c0 -36 2 -50 4 -32 2 17 2 47 0 65 -2 17 -4 3 -4 -33z"/>
<path d="M7082 4600 c0 -19 2 -27 5 -17 2 9 2 25 0 35 -3 9 -5 1 -5 -18z"/>
<path d="M7072 4530 c0 -14 2 -19 5 -12 2 6 2 18 0 25 -3 6 -5 1 -5 -13z"/>
<path d="M7061 4484 c0 -11 3 -14 6 -6 3 7 2 16 -1 19 -3 4 -6 -2 -5 -13z"/>
<path d="M7051 4444 c0 -11 3 -14 6 -6 3 7 2 16 -1 19 -3 4 -6 -2 -5 -13z"/>
<path d="M7026 4375 c-9 -26 -7 -32 5 -12 6 10 9 21 6 23 -2 3 -7 -2 -11 -11z"/>
<path d="M7006 4325 c-9 -26 -7 -32 5 -12 6 10 9 21 6 23 -2 3 -7 -2 -11 -11z"/>
<path d="M6971 4243 c-10 -26 -10 -27 4 -9 8 11 15 23 15 28 0 15 -7 8 -19
-19z"/>
<path d="M6884 4103 c-56 -84 -212 -251 -319 -342 -48 -41 -48 -41 -5 -10 118
88 305 292 373 408 34 59 10 31 -49 -56z"/>
<path d="M6489 3703 c-13 -16 -12 -17 4 -4 16 13 21 21 13 21 -2 0 -10 -8 -17
-17z"/>
<path d="M6387 3636 c-73 -50 -110 -80 -77 -61 34 19 160 106 160 110 0 7 1 8
-83 -49z"/>
<path d="M6228 3539 c-21 -11 -38 -22 -38 -24 0 -3 18 4 40 15 22 11 40 23 40
25 0 7 0 7 -42 -16z"/>
<path d="M6060 3435 c-18 -19 -32 -36 -29 -38 2 -2 19 14 38 35 42 48 36 50
-9 3z"/>
<path d="M6022 3360 c0 -14 2 -19 5 -12 2 6 2 18 0 25 -3 6 -5 1 -5 -13z"/>
<path d="M6030 3322 c0 -6 28 -40 63 -75 35 -35 42 -41 16 -13 -25 28 -53 62
-63 76 -9 13 -16 19 -16 12z"/>
<path d="M6170 3177 c0 -2 42 -42 93 -88 50 -46 86 -76 78 -66 -17 22 -171
161 -171 154z"/>
<path d="M6440 2925 c47 -47 87 -85 90 -85 2 0 -33 38 -80 85 -47 47 -87 85
-90 85 -2 0 33 -38 80 -85z"/>
<path d="M6569 2783 c24 -29 46 -53 48 -53 7 0 -54 75 -74 91 -10 8 2 -10 26
-38z"/>
<path d="M6676 2627 c3 -10 9 -15 12 -12 3 3 0 11 -7 18 -10 9 -11 8 -5 -6z"/>
<path d="M6712 2515 c0 -16 2 -22 5 -12 2 9 2 23 0 30 -3 6 -5 -1 -5 -18z"/>
<path d="M6712 2410 c0 -14 2 -19 5 -12 2 6 2 18 0 25 -3 6 -5 1 -5 -13z"/>
<path d="M6673 2310 c-32 -66 -125 -171 -228 -259 -49 -42 -49 -42 -5 -10 78
57 204 194 239 258 18 34 31 65 29 69 -2 4 -17 -22 -35 -58z"/>
<path d="M6355 1984 l-30 -26 33 22 c17 12 32 23 32 26 0 7 -4 5 -35 -22z"/>
<path d="M6285 1934 l-30 -26 33 22 c17 12 32 23 32 26 0 7 -4 5 -35 -22z"/>
<path d="M6196 1875 c-27 -18 -54 -39 -60 -46 -6 -6 17 7 52 30 34 23 62 44
62 46 0 7 -1 7 -54 -30z"/>
<path d="M6023 1750 c-50 -38 -94 -74 -98 -80 -7 -11 152 107 185 137 34 31
-1 8 -87 -57z"/>
<path d="M5879 1633 l-24 -28 28 24 c25 23 32 31 24 31 -2 0 -14 -12 -28 -27z"/>
<path d="M5740 1509 l-105 -101 108 98 c95 87 113 104 105 104 -2 0 -50 -46
-108 -101z"/>
<path d="M5604 1368 c-44 -47 -104 -124 -104 -132 0 -4 19 16 41 46 23 29 56
68 72 86 17 17 29 32 26 32 -3 0 -19 -15 -35 -32z"/>
</g>
</svg>
